# File produced by Open Asset Import Library (http://www.assimp.sf.net)
# (assimp v3.1.151580502)

mtllib vent_grid.mtl

# 12 vertex positions
v  -77.6496 107.813 -70.2132
v  -58.7708 29.4207 -55.5624
v  -58.9659 16.1384 59.4807
v  -77.4594 107.874 79.9848
v  -78.2695 113.655 -79.3919
v  -78.2695 113.655 89.433
v  -57.129 9.9793 66.2846
v  -57.129 24.8534 -62.7897
v  -58.2564 9.7552 66.2324
v  -58.2521 24.6067 -62.814
v  -79.3929 113.41 89.4068
v  -79.3883 113.389 -79.3919

# 28 UV coordinates
vt 0.4548 0.5158 0
vt 0.0407 0.5158 0
vt 0.0407 0.0664 0
vt 0.459 0.0664 0
vt 0.5009 0.5417 0
vt 0.5009 0.0441 0
vt 0.9765 0.0441 0
vt 0.9765 0.5417 0
vt 0.4536 0.5615 0
vt 0.4536 0.5669 0
vt 0.0165 0.5669 0
vt 0.0165 0.5615 0
vt 0.5267 0.6355 0
vt 0.5267 0.641 0
vt 0.0185 0.641 0
vt 0.0185 0.6355 0
vt 0.0185 0.6151 0
vt 0.0185 0.6098 0
vt 0.5827 0.6098 0
vt 0.5827 0.6151 0
vt 0.4534 0.5872 0
vt 0.4534 0.5927 0
vt 0.0165 0.5927 0
vt 0.0165 0.5872 0
vt 0.0165 0.5398 0
vt 0.0165 0.0331 0
vt 0.4818 0.0331 0
vt 0.4817 0.5398 0

# 12 vertex normals
vn -0.966422 -0.256306 0.0183004
vn -0.984421 -0.175504 0.0107002
vn -0.985896 -0.163399 -0.0361998
vn -0.968689 -0.245697 -0.0356996
vn 0.430933 0.64445 -0.631649
vn 0.442101 0.620402 0.647802
vn 0.68479 -0.536492 0.493193
vn 0.724715 -0.435209 -0.534211
vn -0.47029 -0.761584 0.44589
vn -0.462285 -0.697378 -0.547683
vn -0.684092 0.377196 0.624293
vn -0.68371 0.375205 -0.625909

# Mesh 'g vent_grid_vent_grid' with 20 faces
g g vent_grid_vent_grid
usemtl DefaultMaterial
f  1/1/1 2/2/2 3/3/3
f  3/3/3 4/4/4 1/1/1
f  5/5/5 6/6/6 7/7/7
f  7/7/7 8/8/8 5/5/5
f  7/9/7 9/10/9 10/11/10
f  10/11/10 8/12/8 7/9/7
f  6/13/6 11/14/11 9/15/9
f  9/15/9 7/16/7 6/13/6
f  5/17/5 12/18/12 11/19/11
f  11/19/11 6/20/6 5/17/5
f  8/21/8 10/22/10 12/23/12
f  12/23/12 5/24/5 8/21/8
f  2/2/2 10/25/10 9/26/9
f  9/26/9 3/3/3 2/2/2
f  3/3/3 9/26/9 11/27/11
f  11/27/11 4/4/4 3/3/3
f  4/4/4 11/27/11 12/28/12
f  12/28/12 1/1/1 4/4/4
f  1/1/1 12/28/12 10/25/10
f  10/25/10 2/2/2 1/1/1

